<?xml version="1.0" encoding="utf-8" ?>
<svg baseProfile="full" height="100%" version="1.1" width="100%" xmlns="http://www.w3.org/2000/svg" xmlns:ev="http://www.w3.org/2001/xml-events" xmlns:xlink="http://www.w3.org/1999/xlink"><defs /><text fill="green" x="0" y="0">c</text><text fill="red" x="30" y="0">g</text><line stroke="rgb(10%,10%,16%)" x1="10" x2="25" y1="-3" y2="-3" /><text fill="green" x="0" y="20">c</text><text fill="red" x="30" y="20">g</text><line stroke="rgb(10%,10%,16%)" x1="10" x2="25" y1="17" y2="17" /><text fill="green" x="0" y="40">c</text><text fill="red" x="30" y="40">g</text><line stroke="rgb(10%,10%,16%)" x1="10" x2="25" y1="37" y2="37" /><text fill="red" x="40" y="45">10</text><text fill="green" x="0" y="60">c</text><text fill="red" x="30" y="60">g</text><line stroke="rgb(10%,10%,16%)" x1="10" x2="25" y1="57" y2="57" /><text fill="green" x="80" y="0">c</text><text fill="red" x="110" y="0">g</text><line stroke="rgb(10%,10%,16%)" x1="90" x2="105" y1="-3" y2="-3" /><text fill="yellow" x="80" y="20">a</text><text fill="blue" x="110" y="20">u</text><line stroke="rgb(10%,10%,16%)" x1="90" x2="105" y1="17" y2="17" /><text fill="blue" x="80" y="40">u</text><text fill="yellow" x="110" y="40">a</text><line stroke="rgb(10%,10%,16%)" x1="90" x2="105" y1="37" y2="37" /><text fill="red" x="80" y="60">g</text><text fill="green" x="110" y="60">c</text><line stroke="rgb(10%,10%,16%)" x1="90" x2="105" y1="57" y2="57" /><text fill="red" x="70" y="65">20</text><text fill="green" x="120" y="65">25</text><text fill="red" x="3.75" y="82.0">g</text><text fill="green" x="11.25" y="82.0">c</text><text fill="yellow" x="18.75" y="82.0">a</text><text fill="yellow" x="26.25" y="82.0">a</text><text fill="blue" x="83.75" y="82.0">u</text><text fill="blue" x="91.25" y="82.0">u</text><text fill="green" x="98.75" y="82.0">c</text><text fill="red" x="106.25" y="82.0">g</text><text fill="yellow" x="36.25" y="-10">a</text><text fill="blue" x="48.75" y="-10">u</text><text fill="green" x="61.25" y="-10">c</text><text fill="green" x="73.75" y="-10">c</text></svg>