<?xml version="1.0" encoding="utf-8" ?>
<svg baseProfile="full" height="100%" version="1.1" width="100%" xmlns="http://www.w3.org/2000/svg" xmlns:ev="http://www.w3.org/2001/xml-events" xmlns:xlink="http://www.w3.org/1999/xlink"><defs /><text fill="green" x="0" y="0">c</text><text fill="red" x="30" y="0">g</text><line stroke="rgb(10%,10%,16%)" x1="10" x2="25" y1="-3" y2="-3" /><text fill="green" x="0" y="20">c</text><text fill="red" x="30" y="20">g</text><line stroke="rgb(10%,10%,16%)" x1="10" x2="25" y1="17" y2="17" /><text fill="red" x="40" y="25">15</text><text fill="yellow" x="0" y="40">a</text><text fill="blue" x="30" y="40">u</text><line stroke="rgb(10%,10%,16%)" x1="10" x2="25" y1="37" y2="37" /><text fill="yellow" x="0" y="60">a</text><text fill="blue" x="30" y="60">u</text><line stroke="rgb(10%,10%,16%)" x1="10" x2="25" y1="57" y2="57" /><text fill="green" x="0" y="80">c</text><text fill="red" x="30" y="80">g</text><line stroke="rgb(10%,10%,16%)" x1="10" x2="25" y1="77" y2="77" /><text fill="green" x="-15" y="85">5</text><text fill="green" x="0" y="100">c</text><text fill="red" x="30" y="100">g</text><line stroke="rgb(10%,10%,16%)" x1="10" x2="25" y1="97" y2="97" /><text fill="green" x="0" y="-21">c</text><text fill="red" x="30" y="-21">g</text><line stroke="rgb(10%,10%,16%)" x1="10" x2="25" y1="-24" y2="-24" /><text fill="yellow" x="0" y="-41">a</text><text fill="blue" x="30" y="-41">u</text><line stroke="rgb(10%,10%,16%)" x1="10" x2="25" y1="-44" y2="-44" /><text fill="blue" x="0" y="-61">u</text><text fill="yellow" x="30" y="-61">a</text><line stroke="rgb(10%,10%,16%)" x1="10" x2="25" y1="-64" y2="-64" /><text fill="yellow" x="40" y="-56">35</text><text fill="red" x="0" y="-81">g</text><text fill="green" x="30" y="-81">c</text><line stroke="rgb(10%,10%,16%)" x1="10" x2="25" y1="-84" y2="-84" /><text fill="red" x="-5.80559767983" y="112.861509311">g</text><text fill="green" x="3.21457562419" y="134.638134036">c</text><text fill="yellow" x="26.7854243758" y="134.638134036">a</text><text fill="yellow" x="35.8055976798" y="112.861509311">a</text><text fill="yellow" x="35.8055976798" y="122.861509311">10</text><text fill="blue" x="-3.37117307087" y="45.3933982822">u</text><text fill="blue" x="-3.37117307087" y="55.3933982822">25</text><text fill="blue" x="-6.2132034356" y="56.0">u</text><text fill="yellow" x="-3.37117307087" y="66.6066017178">a</text><text fill="yellow" x="4.3933982822" y="74.3711730709">a</text><text fill="yellow" x="15.0" y="77.2132034356">a</text><text fill="yellow" x="25.6066017178" y="74.3711730709">a</text><text fill="yellow" x="25.6066017178" y="84.3711730709">30</text><text fill="yellow" x="33.3711730709" y="66.6066017178">a</text><text fill="green" x="36.2132034356" y="56.0">c</text><text fill="red" x="33.3711730709" y="45.3933982822">g</text><text fill="yellow" x="26.25" y="-10">a</text><text fill="blue" x="18.75" y="-10">u</text><text fill="green" x="11.25" y="-10">c</text><text fill="green" x="3.75" y="-10">c</text><text fill="green" x="3.75" y="-38.375">20</text></svg>