<?xml version="1.0" encoding="utf-8" ?>
<svg baseProfile="full" height="100%" version="1.1" width="100%" xmlns="http://www.w3.org/2000/svg" xmlns:ev="http://www.w3.org/2001/xml-events" xmlns:xlink="http://www.w3.org/1999/xlink"><defs /><line stroke="rgb(10%,10%,16%)" x1="10" x2="20" y1="0" y2="0" /><text fill="green" x="0" y="0">c</text><text fill="red" x="30" y="0">g</text><line stroke="rgb(10%,10%,16%)" x1="10" x2="20" y1="20" y2="20" /><text fill="green" x="0" y="20">c</text><text fill="red" x="30" y="20">g</text><line stroke="rgb(10%,10%,16%)" x1="10" x2="20" y1="40" y2="40" /><text fill="green" x="0" y="40">c</text><text fill="red" x="30" y="40">g</text><text fill="red" x="40" y="45">10</text><line stroke="rgb(10%,10%,16%)" x1="10" x2="20" y1="60" y2="60" /><text fill="green" x="0" y="60">c</text><text fill="red" x="30" y="60">g</text><line stroke="rgb(10%,10%,16%)" x1="90" x2="100" y1="0" y2="0" /><text fill="green" x="80" y="0">c</text><text fill="red" x="110" y="0">g</text><line stroke="rgb(10%,10%,16%)" x1="90" x2="100" y1="20" y2="20" /><text fill="yellow" x="80" y="20">a</text><text fill="blue" x="110" y="20">u</text><line stroke="rgb(10%,10%,16%)" x1="90" x2="100" y1="40" y2="40" /><text fill="blue" x="80" y="40">u</text><text fill="yellow" x="110" y="40">a</text><line stroke="rgb(10%,10%,16%)" x1="90" x2="100" y1="60" y2="60" /><text fill="red" x="80" y="60">g</text><text fill="green" x="110" y="60">c</text><text fill="red" x="70" y="65">20</text><text fill="green" x="120" y="65">25</text><text fill="red" x="0" y="90">g</text><text fill="green" x="8" y="90">c</text><text fill="yellow" x="16" y="90">a</text><text fill="yellow" x="24" y="90">a</text><text fill="blue" x="80" y="90">u</text><text fill="blue" x="88" y="90">u</text><text fill="green" x="96" y="90">c</text><text fill="red" x="104" y="90">g</text><text fill="yellow" x="30.0" y="-10">a</text><text fill="blue" x="42.5" y="-10">u</text><text fill="green" x="55.0" y="-10">c</text><text fill="green" x="67.5" y="-10">c</text></svg>