<?xml version="1.0" encoding="utf-8" ?>
<svg baseProfile="full" height="100%" version="1.1" width="100%" xmlns="http://www.w3.org/2000/svg" xmlns:ev="http://www.w3.org/2001/xml-events" xmlns:xlink="http://www.w3.org/1999/xlink"><defs /><text fill="green" x="0" y="0">c</text><text fill="red" x="30" y="0">g</text><line stroke="rgb(10%,10%,16%)" x1="10" x2="25" y1="-3" y2="-3" /><text fill="green" x="0" y="20">c</text><text fill="red" x="30" y="20">g</text><line stroke="rgb(10%,10%,16%)" x1="10" x2="25" y1="17" y2="17" /><text fill="red" x="40" y="25">15</text><text fill="yellow" x="0" y="40">a</text><text fill="blue" x="30" y="40">u</text><line stroke="rgb(10%,10%,16%)" x1="10" x2="25" y1="37" y2="37" /><text fill="yellow" x="0" y="60">a</text><text fill="blue" x="30" y="60">u</text><line stroke="rgb(10%,10%,16%)" x1="10" x2="25" y1="57" y2="57" /><text fill="green" x="0" y="80">c</text><text fill="red" x="30" y="80">g</text><line stroke="rgb(10%,10%,16%)" x1="10" x2="25" y1="77" y2="77" /><text fill="green" x="-15" y="85">5</text><text fill="green" x="0" y="100">c</text><text fill="red" x="30" y="100">g</text><line stroke="rgb(10%,10%,16%)" x1="10" x2="25" y1="97" y2="97" /><text fill="green" x="80" y="0">c</text><text fill="red" x="110" y="0">g</text><line stroke="rgb(10%,10%,16%)" x1="90" x2="105" y1="-3" y2="-3" /><text fill="yellow" x="80" y="20">a</text><text fill="blue" x="110" y="20">u</text><line stroke="rgb(10%,10%,16%)" x1="90" x2="105" y1="17" y2="17" /><text fill="blue" x="80" y="40">u</text><text fill="yellow" x="110" y="40">a</text><line stroke="rgb(10%,10%,16%)" x1="90" x2="105" y1="37" y2="37" /><text fill="yellow" x="120" y="45">35</text><text fill="red" x="80" y="60">g</text><text fill="green" x="110" y="60">c</text><line stroke="rgb(10%,10%,16%)" x1="90" x2="105" y1="57" y2="57" /><text fill="red" x="35.8055976798" y="112.861509311">g</text><text fill="green" x="26.7854243758" y="134.638134036">c</text><text fill="yellow" x="3.21457562419" y="134.638134036">a</text><text fill="yellow" x="-5.80559767983" y="112.861509311">a</text><text fill="yellow" x="-5.80559767983" y="122.861509311">10</text><text fill="blue" x="113.371173071" y="66.3933982822">u</text><text fill="blue" x="113.371173071" y="76.3933982822">25</text><text fill="blue" x="116.213203436" y="77.0">u</text><text fill="yellow" x="113.371173071" y="87.6066017178">a</text><text fill="yellow" x="105.606601718" y="95.3711730709">a</text><text fill="yellow" x="95.0" y="98.2132034356">a</text><text fill="yellow" x="84.3933982822" y="95.3711730709">a</text><text fill="yellow" x="84.3933982822" y="105.371173071">30</text><text fill="yellow" x="76.6288269291" y="87.6066017178">a</text><text fill="green" x="73.7867965644" y="77.0">c</text><text fill="red" x="76.6288269291" y="66.3933982822">g</text><text fill="yellow" x="36.25" y="-10">a</text><text fill="blue" x="48.75" y="-10">u</text><text fill="green" x="61.25" y="-10">c</text><text fill="green" x="73.75" y="-10">c</text><text fill="green" x="73.75" y="-20.0">20</text></svg>